<svg xmlns="http://www.w3.org/2000/svg" viewBox="0 0 64 64">
  <path d="M32 6a26 26 0 1 0 0 52 26 26 0 0 0 0-52Zm18.7 16H42.5a41 41 0 0 0-3.2-9.1A21.2 21.2 0 0 1 50.7 22ZM32 11c1.9 2.7 3.6 6.5 4.7 11h-9.4c1.1-4.5 2.8-8.3 4.7-11Zm-4.9 16h9.8c.2 1.6.3 3.2.3 5s-.1 3.4-.3 5h-9.8c-.2-1.6-.3-3.2-.3-5s.1-3.4.3-5Zm-2.4-14.1a41 41 0 0 0-3.2 9.1h-8.2a21.2 21.2 0 0 1 11.4-9.1ZM11 32c0-1.7.2-3.4.6-5h9.6a45.6 45.6 0 0 0 0 10h-9.6c-.4-1.6-.6-3.3-.6-5Zm2.3 10h8.2c.8 3.5 1.9 6.6 3.2 9.1A21.2 21.2 0 0 1 13.3 42ZM32 53c-1.9-2.7-3.6-6.5-4.7-11h9.4c-1.1 4.5-2.8 8.3-4.7 11Zm7.3-1.9c1.3-2.5 2.4-5.6 3.2-9.1h8.2a21.2 21.2 0 0 1-11.4 9.1ZM52.4 37h-9.6a45.6 45.6 0 0 0 0-10h9.6c.4 1.6.6 3.3.6 5s-.2 3.4-.6 5Z"/>
  <path d="M10 55h44v5H10z"/>
</svg>
