<svg xmlns="http://www.w3.org/2000/svg" viewBox="0 0 96 70" role="img" aria-label="VisitGensan travel logo mark">
  <defs>
    <linearGradient id="wave" x1="0" x2="1" y1="0" y2="1">
      <stop offset="0" stop-color="#0fa3b1"/>
      <stop offset="1" stop-color="#047b83"/>
    </linearGradient>
  </defs>
  <circle cx="33" cy="21" r="13" fill="#f6b942"/>
  <g stroke="#f6b942" stroke-linecap="round" stroke-width="4">
    <path d="M33 3v7"/>
    <path d="M33 32v7"/>
    <path d="M15 21h7"/>
    <path d="M44 21h7"/>
    <path d="M20 8l5 5"/>
    <path d="M46 8l-5 5"/>
  </g>
  <path d="M58 14c12 3 19 14 18 31" fill="none" stroke="#2b8a57" stroke-linecap="round" stroke-width="7"/>
  <path d="M58 14c-7 10-9 22-6 36" fill="none" stroke="#2b8a57" stroke-linecap="round" stroke-width="5"/>
  <g fill="#2b8a57">
    <path d="M58 14c-10-2-17 2-22 10 11 1 18-2 22-10z"/>
    <path d="M59 14c9-7 19-7 30-2-11 6-21 7-30 2z"/>
    <path d="M60 18c11 0 20 5 27 15-12-1-21-6-27-15z"/>
  </g>
  <path d="M7 53c10-9 20-9 30 0s20 9 30 0 17-9 24-2" fill="none" stroke="url(#wave)" stroke-linecap="round" stroke-width="8"/>
  <path d="M10 64c10-7 19-7 28 0s19 7 28 0 17-7 24-2" fill="none" stroke="#f6b942" stroke-linecap="round" stroke-width="5"/>
</svg>
